<svg xmlns="http://www.w3.org/2000/svg" viewBox="0 0 63.51 73.33" fill="none" stroke="#b3b3b3" stroke-width="1.3" opacity=".5">
  <g transform="translate(-55.38 -28.22)">
    <g id="a">
      <path d="m60.67 19.05 5.3 9.17-5.3 9.17H50.1l-5.3-9.17 5.3-9.17z"/>
      <path d="m58.02 23.64 2.65 4.58-2.65 4.58h-5.29l-2.64-4.58 2.64-4.58z"/>
      <path d="m50.09 37.39 5.29-9.17-5.3-9.17 5.3 9.17h10.58"/>
    </g>
    <use href="#a" transform="translate(0 18.33)"/>
    <use href="#a" transform="translate(0 36.67)"/>
    <use href="#a" transform="translate(0 55)"/>
    <use href="#a" transform="translate(0 73.33)"/>
    <use href="#a" transform="translate(0 91.67)"/>
    <use href="#a" transform="translate(0 110)"/>
    <use href="#a" transform="translate(15.88 -9.17)"/>
    <use href="#a" transform="translate(15.88 9.17)"/>
    <use href="#a" transform="translate(15.88 27.5)"/>
    <use href="#a" transform="translate(15.88 45.83)"/>
    <use href="#a" transform="translate(15.88 64.17)"/>
    <use href="#a" transform="translate(15.88 82.5)"/>
    <use href="#a" transform="translate(15.88 100.83)"/>
    <use href="#a" transform="translate(31.75 -18.33)"/>
    <use href="#a" transform="translate(31.75)"/>
    <use href="#a" transform="translate(31.75 18.33)"/>
    <use href="#a" transform="translate(31.75 36.67)"/>
    <use href="#a" transform="translate(31.75 55)"/>
    <use href="#a" transform="translate(31.75 73.33)"/>
    <use href="#a" transform="translate(31.75 91.67)"/>
    <use href="#a" transform="translate(47.63 -27.5)"/>
    <use href="#a" transform="translate(47.63 -9.17)"/>
    <use href="#a" transform="translate(47.63 9.17)"/>
    <use href="#a" transform="translate(47.63 27.5)"/>
    <use href="#a" transform="translate(47.63 45.83)"/>
    <use href="#a" transform="translate(47.63 64.17)"/>
    <use href="#a" transform="translate(47.63 82.5)"/>
    <use href="#a" transform="translate(63.5 -36.67)"/>
    <use href="#a" transform="translate(63.5 -18.33)"/>
    <use href="#a" transform="translate(63.5)"/>
    <use href="#a" transform="translate(63.5 18.33)"/>
    <use href="#a" transform="translate(63.5 36.67)"/>
    <use href="#a" transform="translate(63.5 55)"/>
    <use href="#a" transform="translate(63.5 73.33)"/>
  </g>
</svg>
