<?xml version="1.0" encoding="UTF-8" standalone="no"?>
<!-- Created with Inkscape (http://www.inkscape.org/) -->

<svg
   width="500"
   height="500"
   viewBox="0 0 132.29166 132.29167"
   version="1.1"
   id="svg1"
   inkscape:version="1.3 (0e150ed6c4, 2023-07-21)"
   sodipodi:docname="Dark mode.svg"
   xmlns:inkscape="http://www.inkscape.org/namespaces/inkscape"
   xmlns:sodipodi="http://sodipodi.sourceforge.net/DTD/sodipodi-0.dtd"
   xmlns="http://www.w3.org/2000/svg"
   xmlns:svg="http://www.w3.org/2000/svg">
  <sodipodi:namedview
     id="namedview1"
     pagecolor="#7c7c7c"
     bordercolor="#000000"
     borderopacity="1"
     inkscape:showpageshadow="false"
     inkscape:pageopacity="0"
     inkscape:pagecheckerboard="0"
     inkscape:deskcolor="#494949"
     inkscape:document-units="px"
     labelstyle="default"
     inkscape:zoom="1.6249314"
     inkscape:cx="115.38949"
     inkscape:cy="256.93393"
     inkscape:window-width="2560"
     inkscape:window-height="1369"
     inkscape:window-x="1912"
     inkscape:window-y="-8"
     inkscape:window-maximized="1"
     inkscape:current-layer="layer1" />
  <defs
     id="defs1" />
  <g
     inkscape:label="Layer 1"
     inkscape:groupmode="layer"
     id="layer1">
    <path
       id="rect2"
       style="fill:#ddbbdd;fill-opacity:1;fill-rule:evenodd;stroke-width:0.582083;stroke-miterlimit:5;stroke-dashoffset:5.08482"
       inkscape:transform-center-x="34.365896"
       inkscape:transform-center-y="-34.365893"
       transform="rotate(-45)"
       d="M -2.4044988,34.034191 H 2.4044955 V 55.85306 h -4.8089943 z m -41.3757632,19.130354 3.400472,-3.400472 15.42827,15.42827 -3.400472,3.400473 z m -15.729885,42.784292 v -4.808994 h 21.818869 v 4.808994 z m 19.130355,41.375763 -3.400472,-3.40047 15.428271,-15.42827 3.400472,3.40047 z M 2.4044993,153.05449 H -2.404495 v -21.81887 h 4.8089943 z m 41.3757647,-19.13036 -3.400472,3.40047 -15.428271,-15.42827 3.400472,-3.40047 z M 59.510147,91.139839 v 4.808994 H 37.691278 V 91.139839 Z M 40.37979,49.764073 43.780262,53.164545 28.351992,68.592816 24.95152,65.192343 Z M 23.230733,116.77507 a 32.853218,32.853218 0 0 1 -46.461466,0 32.853218,32.853218 0 0 1 0,-46.461465 32.853218,32.853218 0 0 1 46.461466,0 32.853218,32.853218 0 0 1 0,46.461465 z" />
  </g>
</svg>
